<svg width="62" height="33" viewBox="0 0 62 33" xmlns="http://www.w3.org/2000/svg"><title>0D09B394-5A1D-40D5-8679-8AC00677E032</title><path d="M32.402 6.918L32.208 0h1.372l-.202 6.918c-.168 0-.328-.008-.497-.008-.16 0-.32 0-.48.008zm.48 19.172c.168 0 .328 0 .488-.008L33.572 33H32.2l.202-6.918c.16 0 .32.008.48.008zm-9.648-9.586c0 .16.009.318.009.469l-6.962.2V15.81l6.962.2c0 .168-.009.327-.009.494zm19.312 0c0-.159 0-.326-.009-.485l6.962-.2v1.363l-6.962-.201c0-.159.009-.318.009-.477zm-11.34-9.452c-.16.025-.311.058-.471.092L29.329.368l1.355-.234 1.01 6.842c-.16.026-.328.05-.488.076zm3.35 18.896c.17-.025.329-.058.489-.1l1.406 6.776-1.356.234-1.01-6.843c.152-.017.312-.042.472-.067zm-11.17-7.78c.025.16.059.319.092.47l-6.818 1.396-.236-1.347 6.886-1.003c.025.159.05.326.076.485zm19.016-3.328c-.033-.16-.058-.318-.1-.477l6.818-1.397.236 1.338-6.886 1.004a9.611 9.611 0 0 0-.068-.468zm-12.82-7.353c-.152.05-.304.108-.447.175L26.568 1.23l1.288-.47 2.197 6.567c-.16.05-.32.1-.471.159zm6.608 18.026c.151-.05.303-.108.463-.184l2.567 6.433-1.288.468-2.197-6.566c.152-.042.303-.092.455-.15zm-12.367-5.73c.051.15.11.301.177.435l-6.473 2.552-.472-1.28 6.609-2.175c.05.159.1.318.16.468zm18.142-6.558a4.378 4.378 0 0 0-.186-.46l6.474-2.551.472 1.28-6.609 2.183a4.743 4.743 0 0 0-.151-.452zM28.058 8.198c-.143.075-.278.159-.413.242l-3.653-5.889 1.195-.677 3.309 6.09c-.152.075-.295.15-.438.234zm9.656 16.613a7.05 7.05 0 0 0 .42-.26l3.654 5.898-1.187.677-3.308-6.09c.143-.066.277-.142.42-.225zM24.53 21.306c.084.134.168.267.244.401l-5.927 3.63-.682-1.179 6.129-3.287c.076.15.151.292.236.435zm16.727-9.595c-.085-.142-.169-.284-.261-.418l5.926-3.63.69 1.179-6.128 3.287a5.108 5.108 0 0 0-.227-.418zm-14.58-2.56c-.119.11-.245.21-.354.31l-4.63-5.17 1.052-.878 4.318 5.429c-.134.1-.26.2-.387.31zm12.416 14.706l.37-.318 4.63 5.17-1.052.878-4.327-5.429.38-.301zM25.5 22.669c.1.126.21.243.311.352l-5.202 4.6-.884-1.045 5.463-4.292c.101.134.202.26.312.385zm14.79-12.33a4.475 4.475 0 0 0-.328-.368l5.203-4.6.884 1.045-5.464 4.3a11.49 11.49 0 0 0-.295-.377zm-14.799 0a6.282 6.282 0 0 0-.294.368l-5.464-4.291.884-1.046 5.203 4.601c-.11.117-.22.243-.329.368zm14.791 12.33c.11-.125.21-.25.303-.376l5.464 4.291-.884 1.046-5.203-4.601a6.52 6.52 0 0 0 .32-.36zm-13.587 1.188c.118.1.244.2.37.293l-4.318 5.429-1.052-.879 4.63-5.17c.118.11.244.218.37.327zM39.103 9.151l-.38-.3 4.32-5.43 1.052.879-4.63 5.17a6.536 6.536 0 0 0-.362-.319zm-14.572 2.56c-.085.134-.16.276-.228.418l-6.128-3.287.682-1.18 5.935 3.63a7.004 7.004 0 0 0-.261.419zm16.718 9.595c.084-.143.16-.293.227-.427l6.129 3.288-.682 1.179-5.926-3.63c.092-.134.168-.268.252-.41zM28.075 24.81c.134.083.277.159.42.234l-3.308 6.09L24 30.449l3.654-5.898c.134.092.278.176.42.26zM37.73 8.189c-.143-.075-.294-.159-.437-.234l3.316-6.081 1.187.677-3.653 5.89c-.135-.084-.278-.168-.413-.252zm-13.915 5.036c-.05.15-.1.301-.16.452l-6.608-2.183.471-1.28 6.474 2.551c-.06.15-.118.31-.177.46zm18.15 6.558c.059-.15.11-.31.16-.46l6.608 2.175-.471 1.28-6.474-2.551c.059-.143.118-.293.177-.444zm-12.367 5.73c.152.059.303.11.455.16l-2.197 6.566-1.288-.469 2.567-6.432c.152.058.303.117.463.175zm6.609-18.026c-.16-.059-.32-.11-.463-.16L37.932.762l1.288.469-2.567 6.432a24.848 24.848 0 0 0-.446-.175zM23.386 14.84c-.034.158-.05.317-.068.468l-6.886-1.004.236-1.338 6.819 1.397c-.042.15-.076.318-.101.477zm19.016 3.329l.076-.477 6.886 1.004-.235 1.338-6.82-1.397c.035-.15.068-.31.093-.468zm-11.659 7.679c.16.042.32.075.489.092.151.033.311.058.47.075l-1.01 6.843-1.355-.234 1.406-6.776zm4.302-18.704a4.485 4.485 0 0 0-.463-.084 4.923 4.923 0 0 0-.488-.075l1.01-6.851 1.347.234-1.406 6.776zm-24.69 7.495V9.135h3.156V23.94h-3.09l-4.47-5.973a220.688 220.688 0 0 1-2.803-3.823l-.042.017c.026 1.414.042 2.844.042 4.275v5.504H0V9.135h3.081l4.47 5.972a220.689 220.689 0 0 1 2.803 3.823l.042-.017a239.64 239.64 0 0 1-.042-4.274zm47.587.51c2.248.736 4.058 1.782 4.058 4.4 0 2.886-2.206 4.626-5.413 4.626-1.482 0-3.275-.368-4.63-1.046v-3.27c1.608 1.02 3.502 1.472 4.672 1.472 1.196 0 2.08-.469 2.08-1.573 0-1.372-1.406-1.497-3.317-2.108-2.063-.677-3.915-1.681-3.915-4.258 0-2.768 2.096-4.483 5.228-4.483 1.456 0 3.25.368 4.546 1.062v3.212c-1.583-.978-3.418-1.43-4.571-1.43-1.112 0-1.911.41-1.911 1.388 0 1.314 1.38 1.414 3.173 2.008z" fill="#010202"/></svg>